# xmcd
#
# Track frame offsets: 
#        150
#        29817
#        43017
#        58057
#        68872
#        89050
#        114792
#        131085
#        145457
#        165420
#        181155
#
# Disc length: 2622 seconds
#
# Revision: 1
# Processed by: cddbd v1.5.1PL2 Copyright (c) Steve Scherf et al.
# Submitted via: ExactAudioCopy v0.95b3
#
DISCID=a00a3c0b
DTITLE=Various Artist - Paris For Lovers
DYEAR=2005
DGENRE=Jazz
TTITLE0=Ella Fitzgerald, Louis Armstron - April In Paris
TTITLE1=Johnny Hodges - The Last Time I Saw Paris
TTITLE2=Michel Legrand - La Valse De Lilas
TTITLE3=Blossom Dearie - Tout Doucement
TTITLE4=Stephane Grappelli - Nuages
TTITLE5=Abbey Lincoln - C'est Si Bon
TTITLE6=Nina Simone - Ne Me Quitte Pas
TTITLE7=Roland Kirk - Petit Fleur
TTITLE8=Helen Merrill - Quand Tu Dors Pres De Moi
TTITLE9=Laura Fygi/Les Feuilles Mortes
TTITLE10=Louis Armstrong - Al Vie En Rose
EXTD=YEAR: 2005
EXTT0=
EXTT1=
EXTT2=
EXTT3=
EXTT4=
EXTT5=
EXTT6=
EXTT7=
EXTT8=
EXTT9=
EXTT10=
PLAYORDER=
